<?xml version="1.0" encoding="UTF-8"?>
<!DOCTYPE svg PUBLIC "-//W3C//DTD SVG 1.1//EN" "http://www.w3.org/Graphics/SVG/1.1/DTD/svg11.dtd">
<!-- Creator: CorelDRAW 2018 (64-Bit) -->
<svg xmlns="http://www.w3.org/2000/svg" xml:space="preserve" width="5.07548in" height="4.38882in" version="1.1" style="shape-rendering:geometricPrecision; text-rendering:geometricPrecision; image-rendering:optimizeQuality; fill-rule:evenodd; clip-rule:evenodd"
viewBox="0 0 5911.98 5112.15"
 xmlns:xlink="http://www.w3.org/1999/xlink">
 <defs>
  <style type="text/css">
   <![CDATA[
    .str0 {stroke:#FF6600;stroke-width:387.88;stroke-miterlimit:2.61313}
    .fil0 {fill:none}
   ]]>
  </style>
 </defs>
 <g id="Layer_x0020_1">
  <metadata id="CorelCorpID_0Corel-Layer"/>
  <g id="_2054395031328">
   <polyline class="fil0 str0" points="4286.64,2428.38 4286.64,3753.78 4571.5,3445.94 4798.06,3185.38 5062.05,2852.89 5348.7,2426.43 5524.05,2091.09 5640.06,1780.86 5709.15,1440.73 5717.32,1212.18 5648.87,884.67 5477.01,588.4 5251.42,381.65 4986.49,250.37 4649.81,196.2 4286.64,248.99 4286.64,863.11 "/>
   <path class="fil0 str0" d="M2583.92 1347.15l52.98 -101.75 236.68 -352.53 305.13 -238.25 103.14 -41.47 0 3504.79 -705.63 717.61 -699.34 -711.21m701.29 -2766.14l0.58 -1.12 0.56 -1.08 4.6 -8.84"/>
   <polyline class="fil0 str0" points="1625.34,2428.38 1625.34,3753.78 1340.48,3445.94 1113.92,3185.38 849.93,2852.89 563.28,2426.43 387.93,2091.09 271.92,1780.86 202.83,1440.73 194.66,1212.18 263.11,884.67 434.97,588.4 660.56,381.65 925.49,250.37 1262.17,196.2 1625.34,248.99 1625.34,863.11 "/>
  </g>
 </g>
</svg>
